<?xml version="1.0" standalone="no"?>
<!DOCTYPE svg PUBLIC "-//W3C//DTD SVG 20010904//EN"
 "http://www.w3.org/TR/2001/REC-SVG-20010904/DTD/svg10.dtd">
<svg version="1.0" xmlns="http://www.w3.org/2000/svg"
 width="12705.000000pt" height="1591.000000pt" viewBox="0 0 12705.000000 1591.000000"
 preserveAspectRatio="xMidYMid meet">
<metadata>
Created by potrace 1.16, written by Peter Selinger 2001-2019
</metadata>
<g transform="translate(0.000000,1591.000000) scale(0.100000,-0.100000)"
fill="#000000" stroke="none">
<path d="M31900 15275 l0 -625 465 0 465 0 0 625 0 625 -465 0 -465 0 0 -625z"/>
<path d="M45040 8235 l0 -7505 240 0 240 0 0 7505 0 7505 -240 0 -240 0 0
-7505z"/>
<path d="M53950 13569 c-967 -27 -1758 -233 -2379 -619 -686 -426 -1183 -1222
-1366 -2190 -127 -677 -106 -1527 56 -2200 171 -712 512 -1276 1027 -1699 98
-81 331 -229 472 -301 563 -285 1217 -410 2240 -427 832 -13 1687 60 2870 248
267 42 922 154 1028 175 l32 7 0 369 0 370 -27 -6 c-16 -4 -230 -40 -478 -81
-776 -130 -1439 -219 -1975 -264 -489 -42 -590 -46 -1145 -46 -456 0 -580 3
-725 18 -918 94 -1512 321 -1929 738 -413 413 -621 988 -657 1822 l-7 157
3651 0 3652 0 -5 118 c-3 64 -7 214 -10 332 -15 635 -113 1198 -282 1630 -208
529 -542 935 -1015 1229 -620 388 -1425 596 -2378 616 -129 3 -271 7 -315 8
-44 2 -195 0 -335 -4z m815 -749 c924 -69 1568 -293 1991 -693 263 -249 443
-566 549 -970 53 -203 82 -388 110 -709 l6 -68 -3202 0 -3202 0 7 63 c28 261
77 500 153 728 344 1049 1206 1578 2705 1659 183 10 687 4 883 -10z"/>
<path d="M2631 13329 c-901 -38 -1519 -200 -1965 -516 -44 -32 -131 -107 -191
-168 -227 -225 -372 -507 -437 -850 -20 -107 -23 -150 -23 -395 0 -225 4 -293
19 -375 64 -345 187 -588 416 -815 207 -207 475 -358 870 -490 317 -107 572
-163 1390 -305 903 -157 1192 -219 1512 -326 404 -134 619 -305 709 -566 68
-197 65 -552 -7 -799 -108 -375 -401 -601 -909 -703 -172 -35 -426 -65 -700
-83 -254 -17 -1437 -17 -1760 0 -511 27 -916 60 -1314 108 -112 13 -208 24
-212 24 -5 0 -9 -182 -9 -405 l0 -405 23 0 c12 0 240 -18 507 -39 901 -74
1167 -89 1690 -97 687 -12 1297 23 1735 97 1093 184 1659 682 1791 1571 21
147 30 478 15 618 -76 733 -463 1165 -1291 1441 -324 108 -576 163 -1410 309
-797 139 -1052 191 -1342 275 -204 58 -300 94 -443 165 -315 156 -455 358
-485 700 -21 247 26 488 131 668 51 87 218 248 311 301 165 92 306 140 558
191 619 124 1668 139 2755 39 121 -11 341 -33 490 -49 148 -17 277 -30 287
-30 17 0 18 20 16 388 l-3 387 -300 32 c-958 100 -1711 132 -2424 102z"/>
<path d="M10425 13330 c-859 -53 -1515 -247 -2080 -615 -946 -617 -1453 -1884
-1355 -3390 66 -1006 354 -1739 900 -2286 950 -952 2570 -1146 5495 -658 261
44 889 157 918 165 16 5 17 33 17 395 l0 389 -22 -5 c-70 -16 -663 -122 -945
-169 -983 -164 -1651 -232 -2373 -243 -718 -11 -1188 46 -1641 197 -350 117
-620 281 -865 525 -109 109 -158 167 -223 264 -241 362 -375 818 -421 1431 -5
74 -10 143 -10 153 0 16 169 17 3417 17 l3416 0 -7 303 c-3 166 -11 367 -16
447 -61 906 -277 1542 -683 2016 -191 223 -404 392 -709 563 -488 273 -1043
426 -1762 486 -214 18 -852 27 -1051 15z m885 -781 c411 -27 790 -99 1090
-206 259 -92 551 -258 722 -410 381 -339 613 -880 674 -1575 l6 -78 -2972 0
-2973 0 7 76 c42 461 252 995 523 1326 436 534 1161 829 2158 878 181 9 549 4
765 -11z"/>
<path d="M20285 13333 c-676 -33 -1416 -151 -2540 -403 -198 -45 -374 -84
-390 -87 l-31 -5 -18 134 c-10 73 -20 145 -23 161 l-5 27 -354 0 -354 0 0
-3430 0 -3430 410 0 410 0 0 2874 0 2874 173 42 c1218 294 2077 429 2837 446
825 19 1355 -124 1752 -473 323 -284 479 -669 518 -1278 6 -100 10 -971 10
-2322 l0 -2163 410 0 410 0 0 2238 c0 2241 -2 2370 -36 2637 -35 276 -107 556
-193 757 l-20 48 22 5 c12 3 133 32 268 65 1518 368 2435 506 3224 487 375 -9
636 -48 895 -133 445 -146 772 -423 939 -796 63 -141 113 -329 148 -558 16
-107 17 -286 20 -2432 l3 -2318 416 0 415 0 -4 2338 c-4 2533 -2 2439 -58
2767 -69 406 -210 735 -436 1015 -83 103 -258 270 -373 356 -761 572 -1877
702 -3585 418 -512 -85 -1081 -205 -1919 -405 -253 -60 -465 -109 -472 -109
-8 0 -51 30 -96 67 -498 402 -1204 599 -2118 591 -107 -1 -222 -3 -255 -5z"/>
<path d="M38380 13329 c-924 -46 -1658 -249 -2318 -643 -355 -213 -684 -526
-905 -863 -314 -480 -496 -1062 -547 -1748 -13 -178 -13 -562 0 -770 79 -1275
499 -2111 1335 -2658 707 -462 1695 -618 2984 -472 440 50 1009 147 1796 305
192 38 350 70 352 70 2 0 3 176 3 390 0 215 -4 390 -8 390 -5 0 -120 -23 -258
-50 -1339 -270 -2051 -370 -2638 -370 -702 0 -1225 122 -1674 392 -435 262
-750 691 -908 1242 -169 586 -193 1428 -58 2036 107 479 295 840 594 1141 189
191 344 302 599 429 405 202 838 315 1441 377 143 15 265 18 675 18 592 0 802
-13 1697 -100 196 -19 366 -35 377 -35 l21 0 -2 392 -3 393 -220 22 c-1131
113 -1733 142 -2335 112z"/>
<path d="M81425 13269 c-688 -26 -1358 -139 -2741 -464 -246 -58 -450 -105
-454 -105 -4 0 -17 62 -30 138 -12 75 -27 163 -32 195 l-10 57 -319 0 -319 0
0 -3330 0 -3330 390 0 390 0 0 2785 0 2785 23 5 c1499 357 2215 479 3017 516
934 43 1568 -114 1968 -486 211 -197 371 -493 442 -820 58 -269 54 -101 57
-2542 l3 -2243 396 0 395 0 -4 2303 c-2 1736 -6 2329 -16 2412 -70 631 -233
1014 -581 1364 -414 416 -964 654 -1705 736 -119 13 -591 37 -650 33 -11 0
-110 -5 -220 -9z"/>
<path d="M117999 13269 c-647 -33 -1743 -224 -2881 -500 -139 -34 -262 -62
-272 -63 -18 -1 -23 17 -52 189 -18 105 -33 191 -33 193 -1 1 -145 2 -321 2
l-320 0 0 -3330 0 -3330 395 0 395 0 0 2785 0 2784 38 11 c73 20 621 140 892
195 1228 248 2135 355 2670 316 527 -40 947 -162 1249 -363 42 -28 123 -99
182 -157 256 -258 391 -567 456 -1043 15 -111 17 -337 20 -2325 l4 -2203 389
0 390 0 0 2228 c0 1370 -4 2281 -10 2367 -26 368 -91 666 -196 907 -19 42 -34
80 -34 85 0 11 82 31 565 138 1692 376 2784 464 3500 280 362 -93 647 -260
834 -488 201 -246 316 -532 378 -937 16 -106 17 -281 20 -2348 l4 -2232 394 0
395 0 0 2143 c0 1268 -4 2226 -10 2347 -22 451 -78 746 -195 1025 -146 348
-387 641 -714 864 -372 253 -820 397 -1398 447 -234 20 -856 15 -1108 -10
-772 -76 -1675 -242 -2923 -537 l-253 -60 -67 49 c-167 122 -301 200 -482 280
-511 225 -1184 329 -1901 291z"/>
<path d="M63460 13264 c-25 -2 -110 -8 -190 -14 -768 -54 -1421 -236 -1965
-545 -245 -139 -412 -263 -594 -439 -543 -528 -846 -1256 -912 -2191 -13 -187
-7 -700 11 -890 90 -965 363 -1623 880 -2118 442 -424 1024 -685 1732 -776
266 -35 424 -44 758 -44 394 -1 656 18 1140 79 415 52 1061 163 1601 274 136
27 249 50 253 50 3 0 6 160 6 355 0 195 -4 355 -9 355 -4 0 -64 -11 -132 -25
-731 -150 -1503 -273 -2039 -326 -305 -31 -922 -33 -1155 -6 -510 61 -884 178
-1210 377 -687 420 -1029 1260 -1002 2465 13 571 101 989 289 1373 328 668
966 1083 1908 1241 295 50 549 70 965 78 535 10 1083 -19 1948 -102 143 -14
265 -25 273 -25 12 0 14 58 14 365 l0 365 -22 4 c-40 9 -829 77 -1178 102
-209 15 -1243 28 -1370 18z"/>
<path d="M70885 13259 c-1095 -65 -1905 -308 -2488 -745 -628 -472 -995 -1190
-1102 -2154 -40 -364 -40 -858 0 -1220 75 -672 272 -1216 595 -1640 380 -499
963 -856 1722 -1055 593 -155 1424 -227 2268 -196 1001 37 1662 174 2255 466
296 147 512 296 722 499 231 223 376 423 518 711 197 401 302 804 350 1350 19
214 22 701 6 915 -43 555 -151 989 -346 1385 -141 288 -275 476 -494 696 -215
214 -414 355 -716 509 -542 276 -1205 430 -2070 480 -199 12 -1018 11 -1220
-1z m1110 -719 c688 -44 1220 -167 1644 -379 772 -386 1166 -1036 1250 -2064
14 -162 14 -635 1 -792 -71 -837 -334 -1389 -842 -1766 -412 -305 -987 -479
-1819 -549 -361 -30 -1013 -30 -1379 0 -1419 118 -2254 646 -2579 1632 -116
353 -164 698 -164 1188 0 500 50 854 170 1205 291 850 974 1318 2148 1474 144
19 460 48 595 54 170 8 833 6 975 -3z"/>
<path d="M90005 13259 c-1125 -69 -1931 -318 -2525 -777 -117 -91 -306 -277
-403 -397 -460 -571 -687 -1341 -687 -2335 0 -2024 930 -3115 2915 -3420 382
-58 786 -83 1335 -83 691 0 1140 38 1636 138 746 152 1372 468 1785 903 543
571 809 1387 809 2477 0 1628 -600 2648 -1850 3143 -450 179 -927 281 -1570
338 -214 19 -1207 28 -1445 13z m1110 -719 c457 -28 854 -94 1195 -197 320
-96 664 -274 894 -461 436 -356 701 -884 790 -1572 55 -426 45 -989 -25 -1380
-126 -713 -444 -1201 -991 -1519 -415 -241 -988 -380 -1783 -432 -222 -14
-854 -14 -1070 0 -974 65 -1635 285 -2120 704 -519 449 -775 1150 -775 2122 1
1362 473 2143 1511 2500 380 131 826 206 1419 238 143 8 813 6 955 -3z"/>
<path d="M99970 13259 c-1020 -67 -1806 -320 -2418 -778 -142 -106 -371 -328
-476 -461 -370 -468 -595 -1062 -671 -1770 -22 -206 -30 -606 -16 -855 37
-678 146 -1152 366 -1600 136 -278 274 -473 475 -676 514 -517 1181 -793 2070
-858 795 -58 1672 32 3110 318 195 39 355 71 357 71 2 0 3 160 3 355 0 195 -3
355 -6 355 -4 0 -144 -27 -313 -60 -765 -151 -1368 -244 -1916 -297 -228 -22
-867 -25 -1050 -5 -836 90 -1389 354 -1757 837 -190 250 -334 582 -417 960
-94 428 -116 1053 -55 1520 101 779 413 1334 950 1693 380 254 837 409 1424
481 261 32 402 41 755 48 512 9 979 -14 1786 -87 239 -22 438 -40 442 -40 4 0
6 165 5 367 l-3 368 -405 36 c-440 40 -758 63 -1055 79 -222 12 -1003 11
-1185 -1z"/>
<path d="M107475 13259 c-970 -57 -1699 -250 -2279 -603 -937 -570 -1388
-1627 -1335 -3127 54 -1540 674 -2485 1939 -2957 715 -267 1763 -378 2940
-311 1001 56 1754 267 2330 651 181 120 286 204 415 333 343 344 584 789 719
1330 191 765 174 1815 -41 2525 -150 497 -372 873 -704 1195 -598 579 -1494
892 -2763 965 -206 12 -1015 11 -1221 -1z m1115 -719 c1368 -87 2202 -510
2608 -1325 154 -310 241 -649 283 -1105 18 -195 15 -668 -5 -870 -96 -960
-463 -1557 -1170 -1900 -473 -230 -1059 -343 -1906 -370 -1065 -32 -1913 106
-2480 406 -624 331 -993 836 -1145 1572 -102 489 -104 1214 -4 1706 194 966
774 1526 1822 1760 288 65 623 107 1037 129 147 8 814 6 960 -3z"/>
<path d="M31960 9730 l0 -3430 410 0 410 0 0 3430 0 3430 -410 0 -410 0 0
-3430z"/>
<path d="M98630 3553 c-175 -13 -420 -68 -575 -130 -265 -105 -506 -272 -676
-467 -281 -323 -429 -728 -429 -1176 0 -955 669 -1673 1649 -1770 451 -44 924
64 1257 289 101 68 225 174 281 240 l37 44 -204 198 c-113 109 -209 198 -214
199 -4 0 -46 -36 -92 -79 -287 -271 -661 -377 -1084 -305 -246 42 -501 178
-660 352 -209 227 -311 501 -311 832 0 331 102 605 311 832 342 374 970 484
1445 254 128 -62 204 -114 313 -213 l79 -71 206 194 c114 108 207 199 207 203
0 16 -164 173 -242 231 -338 255 -810 380 -1298 343z"/>
<path d="M75370 1780 l0 -1730 1225 0 1225 0 0 275 0 275 -900 0 -900 0 0
1455 0 1455 -325 0 -325 0 0 -1730z"/>
<path d="M78730 1780 l0 -1730 325 0 325 0 0 1730 0 1730 -325 0 -325 0 0
-1730z"/>
<path d="M80212 3493 c3 -10 342 -789 754 -1730 l748 -1713 321 0 320 0 750
1721 c413 947 752 1725 753 1730 2 6 -133 8 -325 7 l-328 -3 -557 -1280 c-307
-704 -565 -1299 -575 -1323 l-18 -44 -571 1324 -571 1323 -353 3 c-332 2 -352
1 -348 -15z"/>
<path d="M84630 1780 l0 -1730 1295 0 1295 0 0 275 0 275 -970 0 -970 0 0 470
0 470 830 0 830 0 0 270 0 270 -830 0 -830 0 0 440 0 440 935 0 935 0 0 275 0
275 -1260 0 -1260 0 0 -1730z"/>
<path d="M89670 3235 l0 -275 570 0 570 0 0 -1455 0 -1455 330 0 330 0 0 1455
0 1455 570 0 570 0 0 275 0 275 -1470 0 -1470 0 0 -275z"/>
<path d="M93500 1780 l0 -1730 1295 0 1295 0 0 275 0 275 -970 0 -970 0 0 470
0 470 830 0 830 0 0 270 0 270 -830 0 -830 0 0 440 0 440 935 0 935 0 0 275 0
275 -1260 0 -1260 0 0 -1730z"/>
<path d="M101190 1780 l0 -1730 325 0 325 0 0 740 0 740 890 0 890 0 0 -740 0
-740 325 0 325 0 0 1730 0 1730 -325 0 -325 0 0 -710 0 -710 -890 0 -890 0 0
710 0 710 -325 0 -325 0 0 -1730z"/>
</g>
</svg>
